<svg width="320" height="213" version="1.1" xmlns="http://www.w3.org/2000/svg" desc="Created with imagetracer.js version 1.2.6" ><path fill="rgb(87,98,123)" stroke="rgb(87,98,123)" stroke-width="1" opacity="1" d="M 6.5 3 L 4.5 6 L 6.5 3 Z " /><path fill="rgb(87,98,123)" stroke="rgb(87,98,123)" stroke-width="1" opacity="1" d="M 291.5 3 L 313.5 3 L 317 6.5 L 316 51.5 L 314.5 53 L 299.5 50 Q 286.9 45.1 279 35.5 Q 269 24.5 267 5.5 L 268.5 4 L 290.5 4 L 291.5 3 Z " /><path fill="rgb(87,98,123)" stroke="rgb(87,98,123)" stroke-width="1" opacity="1" d="M 3.5 8 L 4 204.5 L 3 204.5 L 3.5 8 Z " /><path fill="rgb(87,98,123)" stroke="rgb(87,98,123)" stroke-width="1" opacity="1" d="M 88.5 79 L 95 79.5 L 88.5 80 L 88.5 79 Z " /><path fill="rgb(87,98,123)" stroke="rgb(87,98,123)" stroke-width="1" opacity="1" d="M 98.5 80 L 100.5 83 L 98.5 80 Z " /><path fill="rgb(87,98,123)" stroke="rgb(87,98,123)" stroke-width="1" opacity="1" d="M 76.5 84 L 75.5 86 L 76.5 84 Z " /><path fill="rgb(87,98,123)" stroke="rgb(87,98,123)" stroke-width="1" opacity="1" d="M 106.5 84 L 107 87.5 L 106 87.5 L 106.5 84 Z " /><path fill="rgb(87,98,123)" stroke="rgb(87,98,123)" stroke-width="1" opacity="1" d="M 71.5 89 L 70.5 91 L 71.5 89 Z " /><path fill="rgb(87,98,123)" stroke="rgb(87,98,123)" stroke-width="1" opacity="1" d="M 127.5 90 L 134 90.5 L 127.5 91 L 127.5 90 Z " /><path fill="rgb(87,98,123)" stroke="rgb(87,98,123)" stroke-width="1" opacity="1" d="M 164.5 90 L 171 90.5 L 164.5 91 L 164.5 90 Z " /><path fill="rgb(87,98,123)" stroke="rgb(87,98,123)" stroke-width="1" opacity="1" d="M 189.5 90 Q 194.8 88.8 196 91.5 L 195.5 120 L 195 91 L 189.5 91 L 189.5 90 Z " /><path fill="rgb(87,98,123)" stroke="rgb(87,98,123)" stroke-width="1" opacity="1" d="M 210.5 90 L 213 90.5 L 210.5 91 L 210.5 90 Z " /><path fill="rgb(87,98,123)" stroke="rgb(87,98,123)" stroke-width="1" opacity="1" d="M 216.5 90 L 219 90.5 L 216.5 91 L 216.5 90 Z " /><path fill="rgb(87,98,123)" stroke="rgb(87,98,123)" stroke-width="1" opacity="1" d="M 245.5 90 L 248 90.5 L 245.5 91 L 245.5 90 Z " /><path fill="rgb(87,98,123)" stroke="rgb(87,98,123)" stroke-width="1" opacity="1" d="M 220.5 91 L 223 92.5 L 221.5 92 L 220.5 91 Z " /><path fill="rgb(87,98,123)" stroke="rgb(87,98,123)" stroke-width="1" opacity="1" d="M 249.5 91 L 254 96.5 L 250.5 99 L 251.5 97 Q 253.8 97.8 253 95.5 L 249.5 91 Z " /><path fill="rgb(87,98,123)" stroke="rgb(87,98,123)" stroke-width="1" opacity="1" d="M 87.5 92 L 91 93.5 L 88.5 94 L 87.5 92 Z " /><path fill="rgb(87,98,123)" stroke="rgb(87,98,123)" stroke-width="1" opacity="1" d="M 96.5 92 L 99 92.5 L 96.5 93 L 96.5 92 Z " /><path fill="rgb(87,98,123)" stroke="rgb(87,98,123)" stroke-width="1" opacity="1" d="M 236.5 92 L 235.5 94 L 236.5 92 Z " /><path fill="rgb(87,98,123)" stroke="rgb(87,98,123)" stroke-width="1" opacity="1" d="M 111.5 93 L 107.5 98 L 111.5 93 Z " /><path fill="rgb(87,98,123)" stroke="rgb(87,98,123)" stroke-width="1" opacity="1" d="M 224.5 93 L 226.5 96 L 224.5 93 Z " /><path fill="rgb(87,98,123)" stroke="rgb(87,98,123)" stroke-width="1" opacity="1" d="M 242.5 96 Q 246.3 95.3 247 97.5 L 245.5 97 Q 241.5 97.7 242.5 96 Z " /><path fill="rgb(87,98,123)" stroke="rgb(87,98,123)" stroke-width="1" opacity="1" d="M 90.5 97 L 94 97.5 L 90.5 98 L 90.5 97 Z " /><path fill="rgb(87,98,123)" stroke="rgb(87,98,123)" stroke-width="1" opacity="1" d="M 227.5 97 L 229 99.5 L 228 99.5 L 227.5 97 Z " /><path fill="rgb(87,98,123)" stroke="rgb(87,98,123)" stroke-width="1" opacity="1" d="M 233.5 97 L 234 99.5 L 233 99.5 L 233.5 97 Z " /><path fill="rgb(87,98,123)" stroke="rgb(87,98,123)" stroke-width="1" opacity="1" d="M 83.5 98 L 86 98.5 L 83.5 99 L 83.5 98 Z " /><path fill="rgb(87,98,123)" stroke="rgb(87,98,123)" stroke-width="1" opacity="1" d="M 138.5 98 L 139 119.5 L 138 119.5 L 138.5 98 Z " /><path fill="rgb(87,98,123)" stroke="rgb(87,98,123)" stroke-width="1" opacity="1" d="M 154.5 98 L 159 101.5 L 155.5 99 L 154.5 98 Z " /><path fill="rgb(87,98,123)" stroke="rgb(87,98,123)" stroke-width="1" opacity="1" d="M 209.5 98 L 208.5 100 L 209.5 98 Z " /><path fill="rgb(87,98,123)" stroke="rgb(87,98,123)" stroke-width="1" opacity="1" d="M 219.5 98 L 222 101.5 L 221 101.5 L 219.5 98 Z " /><path fill="rgb(87,98,123)" stroke="rgb(87,98,123)" stroke-width="1" opacity="1" d="M 94.5 101 L 97 101.5 L 94.5 102 L 94.5 101 Z " /><path fill="rgb(87,98,123)" stroke="rgb(87,98,123)" stroke-width="1" opacity="1" d="M 229.5 101 L 230 103.5 L 229 103.5 L 229.5 101 Z " /><path fill="rgb(87,98,123)" stroke="rgb(87,98,123)" stroke-width="1" opacity="1" d="M 234.5 101 L 238 105.5 L 234 102.5 L 234.5 101 Z " /><path fill="rgb(87,98,123)" stroke="rgb(87,98,123)" stroke-width="1" opacity="1" d="M 73.5 102 L 70.5 106 L 73.5 102 Z " /><path fill="rgb(87,98,123)" stroke="rgb(87,98,123)" stroke-width="1" opacity="1" d="M 87.5 102 L 90 102.5 L 87.5 103 L 87.5 102 Z " /><path fill="rgb(87,98,123)" stroke="rgb(87,98,123)" stroke-width="1" opacity="1" d="M 199.5 102 L 200 108.5 L 199 108.5 L 199.5 102 Z " /><path fill="rgb(87,98,123)" stroke="rgb(87,98,123)" stroke-width="1" opacity="1" d="M 222.5 103 L 223 107.5 L 222 107.5 L 222.5 103 Z " /><path fill="rgb(87,98,123)" stroke="rgb(87,98,123)" stroke-width="1" opacity="1" d="M 147.5 104 L 145.5 107 L 147.5 104 Z " /><path fill="rgb(87,98,123)" stroke="rgb(87,98,123)" stroke-width="1" opacity="1" d="M 250.5 104 L 253.5 108 L 250.5 104 Z " /><path fill="rgb(87,98,123)" stroke="rgb(87,98,123)" stroke-width="1" opacity="1" d="M 100.5 105 L 101.5 107 L 100.5 105 Z " /><path fill="rgb(87,98,123)" stroke="rgb(87,98,123)" stroke-width="1" opacity="1" d="M 74.5 107 L 73.5 109 L 74.5 107 Z " /><path fill="rgb(87,98,123)" stroke="rgb(87,98,123)" stroke-width="1" opacity="1" d="M 229.5 107 L 230 109.5 L 229 109.5 L 229.5 107 Z " /><path fill="rgb(87,98,123)" stroke="rgb(87,98,123)" stroke-width="1" opacity="1" d="M 66.5 108 L 67 110.5 L 66 110.5 L 66.5 108 Z " /><path fill="rgb(87,98,123)" stroke="rgb(87,98,123)" stroke-width="1" opacity="1" d="M 207.5 108 L 209 110.5 L 207 109.5 L 207.5 108 Z " /><path fill="rgb(87,98,123)" stroke="rgb(87,98,123)" stroke-width="1" opacity="1" d="M 254.5 109 L 255 113.5 L 254 113.5 L 254.5 109 Z " /><path fill="rgb(87,98,123)" stroke="rgb(87,98,123)" stroke-width="1" opacity="1" d="M 80.5 110 L 79.5 112 L 80.5 110 Z " /><path fill="rgb(87,98,123)" stroke="rgb(87,98,123)" stroke-width="1" opacity="1" d="M 201.5 113 L 205.5 118 L 201.5 113 Z " /><path fill="rgb(87,98,123)" stroke="rgb(87,98,123)" stroke-width="1" opacity="1" d="M 212.5 113 L 217 113.5 L 212.5 114 L 212.5 113 Z " /><path fill="rgb(87,98,123)" stroke="rgb(87,98,123)" stroke-width="1" opacity="1" d="M 234.5 116 L 235.5 118 L 234.5 116 Z " /><path fill="rgb(87,98,123)" stroke="rgb(87,98,123)" stroke-width="1" opacity="1" d="M 75.5 117 L 76 120.5 L 75 120.5 L 75.5 117 Z " /><path fill="rgb(87,98,123)" stroke="rgb(87,98,123)" stroke-width="1" opacity="1" d="M 223.5 117 L 222.5 119 L 223.5 117 Z " /><path fill="rgb(87,98,123)" stroke="rgb(87,98,123)" stroke-width="1" opacity="1" d="M 113.5 118 L 112.5 120 L 113.5 118 Z " /><path fill="rgb(87,98,123)" stroke="rgb(87,98,123)" stroke-width="1" opacity="1" d="M 250.5 118 L 249.5 120 L 248 119.5 L 250.5 118 Z " /><path fill="rgb(87,98,123)" stroke="rgb(87,98,123)" stroke-width="1" opacity="1" d="M 213.5 120 L 217 120.5 L 213.5 121 L 213.5 120 Z " /><path fill="rgb(87,98,123)" stroke="rgb(87,98,123)" stroke-width="1" opacity="1" d="M 241.5 120 L 247 120.5 L 241.5 121 L 241.5 120 Z " /><path fill="rgb(87,98,123)" stroke="rgb(87,98,123)" stroke-width="1" opacity="1" d="M 73.5 122 L 74.5 124 L 73.5 122 Z " /><path fill="rgb(87,98,123)" stroke="rgb(87,98,123)" stroke-width="1" opacity="1" d="M 110.5 122 L 108.5 125 L 110.5 122 Z " /><path fill="rgb(87,98,123)" stroke="rgb(87,98,123)" stroke-width="1" opacity="1" d="M 82.5 127 L 84.5 130 L 82.5 127 Z " /><path fill="rgb(87,98,123)" stroke="rgb(87,98,123)" stroke-width="1" opacity="1" d="M 87.5 130 L 96 130.5 L 87.5 131 L 87.5 130 Z " /><path fill="rgb(87,98,123)" stroke="rgb(87,98,123)" stroke-width="1" opacity="1" d="M 130.5 209 L 313 209.5 L 130.5 210 L 130.5 209 Z " /><path fill="rgb(193,229,244)" stroke="rgb(193,229,244)" stroke-width="1" opacity="1" d="M 8.5 2 L 313 2.5 L 8.5 3 L 8.5 2 Z " /><path fill="rgb(193,229,244)" stroke="rgb(193,229,244)" stroke-width="1" opacity="1" d="M 314.5 3 L 316.5 6 L 314.5 3 Z " /><path fill="rgb(193,229,244)" stroke="rgb(193,229,244)" stroke-width="1" opacity="1" d="M 317.5 7 L 318 205.5 L 317 205.5 L 317.5 7 Z " /><path fill="rgb(193,229,244)" stroke="rgb(193,229,244)" stroke-width="1" opacity="1" d="M 85.5 80 L 97.5 80 L 101 83.5 Q 101.8 88.3 98.5 89 L 84 93.5 L 90.5 94 L 101.5 92 L 107 87.5 L 107.5 85 L 110 89.5 L 107.5 93 L 101.5 96 L 83.5 98 L 73.5 102 L 70 105.5 L 67.5 112 L 67 109.5 L 67.5 108 Q 64.5 108.5 66 101.5 Q 68.3 91.8 74.5 86 L 85.5 80 Z " /><path fill="rgb(193,229,244)" stroke="rgb(193,229,244)" stroke-width="1" opacity="1" d="M 213.5 90 Q 223.1 90.4 227 96.5 L 230 106.5 L 227 114.5 L 224.5 117 Q 220.3 121.3 210.5 120 L 201 112.5 L 200 100.5 L 205.5 93 L 213.5 90 Z M 212 97 L 210 98 L 206 105 L 207 110 L 213 114 L 219 113 L 223 108 L 222 101 Q 220 96 212 97 Z " /><path fill="rgb(193,229,244)" stroke="rgb(193,229,244)" stroke-width="1" opacity="1" d="M 242.5 90 Q 250.6 89.9 253 95.5 Q 253.8 97.8 251.5 97 L 248.5 99 Q 247.8 95.3 242.5 96 Q 240 97.2 241 101 Q 249.7 102.1 254 108.5 Q 255.3 115.8 251.5 118 Q 247.8 121.3 239.5 120 L 234 115.5 L 233 113.5 L 239 111 Q 237.9 113.7 240.5 113 L 247 114 L 248 111.5 L 247 109 L 238.5 106 L 235 102.5 L 234 96.5 L 237.5 92 L 242.5 90 Z " /><path fill="rgb(193,229,244)" stroke="rgb(193,229,244)" stroke-width="1" opacity="1" d="M 127 91 L 133.5 91 L 134 91.5 L 134 120 Q 128.6 121.5 127 118.5 L 127 91 Z " /><path fill="rgb(193,229,244)" stroke="rgb(193,229,244)" stroke-width="1" opacity="1" d="M 164 91 L 170.5 91 L 171 92.5 L 179.5 110 Q 185.5 101.8 188 91 L 194.5 91 L 195 91.5 L 195 120 Q 189.6 121.5 188 118.5 L 187.5 108 L 181.5 120 Q 177 121 176 118.5 L 171.5 107 L 171 120 L 164.5 120 L 164 119.5 L 164 91 Z " /><path fill="rgb(193,229,244)" stroke="rgb(193,229,244)" stroke-width="1" opacity="1" d="M 112 92 Q 114.7 90.9 114 93.5 Q 118.4 98.7 117 109.5 Q 114.4 120.4 106.5 126 Q 99.8 131.8 85.5 130 Q 79.9 128.1 81 119.5 L 85.5 113 L 103 105.5 L 100.5 105 L 95.5 107 L 82.5 109 L 77 113.5 L 75 120.5 L 77 124.5 L 75 125 Q 71.5 121.2 71 113.5 L 76.5 106 L 84.5 103 L 96.5 102 L 103.5 100 L 112 93.5 L 112 92 Z " /><path fill="rgb(193,229,244)" stroke="rgb(193,229,244)" stroke-width="1" opacity="1" d="M 139 98 L 145 98 L 145 100.5 L 147.5 99 L 153.5 98 L 159 102.5 Q 161.6 108.4 160 118.5 Q 159 121 154.5 120 L 153 118.5 L 153 105.5 L 151.5 104 Q 146 103 145 106.5 L 145 120 L 139 120 L 139 98 Z " /><path fill="rgb(193,229,244)" stroke="rgb(193,229,244)" stroke-width="1" opacity="1" d="M 4.5 207 L 6.5 210 L 4.5 207 Z " /><path fill="rgb(193,229,244)" stroke="rgb(193,229,244)" stroke-width="1" opacity="1" d="M 316.5 207 L 315.5 209 L 316.5 207 Z " /><path fill="rgb(48,61,91)" stroke="rgb(48,61,91)" stroke-width="1" opacity="1" d="M 73.5 3 L 97 3.5 L 73.5 4 L 73.5 3 Z " /><path fill="rgb(48,61,91)" stroke="rgb(48,61,91)" stroke-width="1" opacity="1" d="M 39 4 L 68 4 L 68 26.5 L 70 33.5 L 69 36.5 L 71 41.5 L 71 47.5 Q 74.1 52.9 74 61.5 L 79 80 L 81 80.5 L 79 81 L 78.5 83 L 77.5 82 L 74.5 85 L 72 86.5 Q 73.1 89.8 70.5 89 Q 64.8 93.3 65 103.5 L 65 105.5 L 65 111.5 L 67 112 L 67 113.5 L 69 112.5 Q 69.6 106.6 73.5 104 L 76 102.5 L 76.5 101 L 78.5 101 L 82.5 99 L 85.5 100 L 88.5 98 L 87 100.5 Q 87.9 103.9 82.5 102 L 77 104 L 76.5 106 L 75.5 105 L 71 109.5 Q 68.7 112.7 70 119.5 L 73.5 125 L 75 124.5 Q 72.8 125.8 75.5 127 L 77.5 128 L 79 125.5 L 76 116.5 L 78 116 L 81.5 111 Q 84.8 112.1 84 109.5 L 85.5 110 L 89.5 108 L 90 110 L 86 111 L 85.5 113 Q 83.8 110.3 82 114.5 L 80 118.5 L 80 122.5 Q 78.5 126.9 81.5 126 Q 79.7 128.5 84.5 131 Q 88 133.5 95.5 132 L 102.5 129 Q 122.3 165.2 152.5 191 L 174 207.5 L 128.5 208 L 118 198.5 Q 81.8 162.2 60 111.5 L 51 87.5 L 43 56.5 L 42 44.5 L 40 38.5 L 40 28.5 L 39 27.5 L 39 4 Z " /><path fill="rgb(48,61,91)" stroke="rgb(48,61,91)" stroke-width="1" opacity="1" d="M 93.5 78 L 96 78.5 L 93.5 79 L 93.5 78 Z " /><path fill="rgb(48,61,91)" stroke="rgb(48,61,91)" stroke-width="1" opacity="1" d="M 97.5 79 L 100 80.5 L 98.5 80 L 97.5 79 Z " /><path fill="rgb(48,61,91)" stroke="rgb(48,61,91)" stroke-width="1" opacity="1" d="M 102.5 84 L 103 85.5 L 101 86.5 L 102.5 84 Z " /><path fill="rgb(48,61,91)" stroke="rgb(48,61,91)" stroke-width="1" opacity="1" d="M 98.5 89 L 96.5 92 L 98.5 89 Z " /><path fill="rgb(48,61,91)" stroke="rgb(48,61,91)" stroke-width="1" opacity="1" d="M 103.5 89 L 102.5 91 L 103.5 89 Z " /><path fill="rgb(48,61,91)" stroke="rgb(48,61,91)" stroke-width="1" opacity="1" d="M 111.5 92 L 108.5 96 L 111.5 92 Z " /><path fill="rgb(48,61,91)" stroke="rgb(48,61,91)" stroke-width="1" opacity="1" d="M 107.5 93 L 106.5 95 L 107.5 93 Z " /><path fill="rgb(48,61,91)" stroke="rgb(48,61,91)" stroke-width="1" opacity="1" d="M 102.5 98 L 101.5 100 L 102.5 98 Z " /><path fill="rgb(48,61,91)" stroke="rgb(48,61,91)" stroke-width="1" opacity="1" d="M 117.5 98 L 118 100.5 L 117 100.5 L 117.5 98 Z " /><path fill="rgb(48,61,91)" stroke="rgb(48,61,91)" stroke-width="1" opacity="1" d="M 137.5 99 L 138 118.5 L 137 118.5 L 137.5 99 Z " /><path fill="rgb(48,61,91)" stroke="rgb(48,61,91)" stroke-width="1" opacity="1" d="M 92.5 100 L 95 100.5 L 92.5 101 L 92.5 100 Z " /><path fill="rgb(48,61,91)" stroke="rgb(48,61,91)" stroke-width="1" opacity="1" d="M 147.5 105 L 146.5 107 L 147.5 105 Z " /><path fill="rgb(48,61,91)" stroke="rgb(48,61,91)" stroke-width="1" opacity="1" d="M 106 126 L 108 126.5 L 106 127.5 L 106 126 Z " /><path fill="rgb(48,61,91)" stroke="rgb(48,61,91)" stroke-width="1" opacity="1" d="M 176.5 208 L 224 208.5 L 176.5 209 L 176.5 208 Z " /><path fill="rgb(58,70,99)" stroke="rgb(58,70,99)" stroke-width="1" opacity="1" d="M 139.5 3 L 156 3.5 L 139.5 4 L 139.5 3 Z " /><path fill="rgb(58,70,99)" stroke="rgb(58,70,99)" stroke-width="1" opacity="1" d="M 115.5 4 L 127 4 L 127 23.5 L 133 54.5 L 140 74.5 L 150 96 L 154 96.5 L 145.5 98 L 144.5 97 L 137 97 L 136 91 Q 133 92.3 134 88.5 L 129 79.5 L 119 47.5 L 119 42.5 L 117 37.5 L 117 31.5 L 115 24.5 L 114 5.5 L 115.5 4 Z " /><path fill="rgb(58,70,99)" stroke="rgb(58,70,99)" stroke-width="1" opacity="1" d="M 164.5 89 L 170 89.5 L 164.5 90 L 164.5 89 Z " /><path fill="rgb(58,70,99)" stroke="rgb(58,70,99)" stroke-width="1" opacity="1" d="M 93.5 91 L 94.5 93 L 93.5 91 Z " /><path fill="rgb(58,70,99)" stroke="rgb(58,70,99)" stroke-width="1" opacity="1" d="M 174.5 96 L 176 98.5 L 174 97.5 L 174.5 96 Z " /><path fill="rgb(58,70,99)" stroke="rgb(58,70,99)" stroke-width="1" opacity="1" d="M 157.5 98 L 158.5 100 L 157.5 98 Z " /><path fill="rgb(58,70,99)" stroke="rgb(58,70,99)" stroke-width="1" opacity="1" d="M 196.5 101 L 197 119.5 L 196 119.5 L 196.5 101 Z " /><path fill="rgb(58,70,99)" stroke="rgb(58,70,99)" stroke-width="1" opacity="1" d="M 198.5 103 L 199 107.5 L 198 107.5 L 198.5 103 Z " /><path fill="rgb(58,70,99)" stroke="rgb(58,70,99)" stroke-width="1" opacity="1" d="M 162.5 104 L 163 119.5 L 164.5 121 Q 168.3 120.3 169 122.5 L 189.5 145 Q 210.6 164.4 238.5 177 L 265.5 187 L 296.5 193 L 298.5 193 L 314.5 194 L 316 193.5 L 316 204.5 L 314.5 206 L 297.5 205 L 296.5 204 L 272.5 201 L 248.5 194 L 229.5 186 Q 193.7 168.3 168 140.5 L 166 137.5 L 152 120.5 L 153.5 121 Q 159.5 122.5 161 119.5 L 162.5 104 Z " /><path fill="rgb(58,70,99)" stroke="rgb(58,70,99)" stroke-width="1" opacity="1" d="M 207.5 104 L 208 106.5 L 207 106.5 L 207.5 104 Z " /><path fill="rgb(58,70,99)" stroke="rgb(58,70,99)" stroke-width="1" opacity="1" d="M 149.5 105 L 153 107.5 L 151.5 119 L 147 113.5 L 147 106 L 149.5 105 Z " /><path fill="rgb(58,70,99)" stroke="rgb(58,70,99)" stroke-width="1" opacity="1" d="M 178.5 105 L 180 107.5 L 178 106.5 L 178.5 105 Z " /><path fill="rgb(58,70,99)" stroke="rgb(58,70,99)" stroke-width="1" opacity="1" d="M 186.5 113 L 185.5 115 L 186.5 113 Z " /><path fill="rgb(58,70,99)" stroke="rgb(58,70,99)" stroke-width="1" opacity="1" d="M 201.5 114 L 202.5 116 L 201.5 114 Z " /><path fill="rgb(58,70,99)" stroke="rgb(58,70,99)" stroke-width="1" opacity="1" d="M 204.5 117 L 205.5 119 L 204.5 117 Z " /><path fill="rgb(58,70,99)" stroke="rgb(58,70,99)" stroke-width="1" opacity="1" d="M 183.5 119 L 182.5 121 L 183.5 119 Z " /><path fill="rgb(58,70,99)" stroke="rgb(58,70,99)" stroke-width="1" opacity="1" d="M 178.5 120 L 181 120.5 L 178.5 121 L 178.5 120 Z " /><path fill="rgb(58,70,99)" stroke="rgb(58,70,99)" stroke-width="1" opacity="1" d="M 189.5 120 L 195 120.5 L 189.5 121 L 189.5 120 Z " /><path fill="rgb(58,70,99)" stroke="rgb(58,70,99)" stroke-width="1" opacity="1" d="M 316.5 164 L 317 181.5 L 316 181.5 L 316.5 164 Z " /><path fill="rgb(55,68,97)" stroke="rgb(55,68,97)" stroke-width="1" opacity="1" d="M 127.5 3 L 139 3.5 L 127.5 4 L 127.5 3 Z " /><path fill="rgb(55,68,97)" stroke="rgb(55,68,97)" stroke-width="1" opacity="1" d="M 97 4 L 115 4.5 L 114 9.5 L 115 10.5 L 115 24.5 L 120 51.5 L 129 79.5 L 134 88.5 L 127 89 L 126 91.5 L 125.5 110 L 114 88.5 L 106 66.5 L 98 29.5 L 97 4 Z " /><path fill="rgb(55,68,97)" stroke="rgb(55,68,97)" stroke-width="1" opacity="1" d="M 73.5 86 L 72.5 88 L 73.5 86 Z " /><path fill="rgb(55,68,97)" stroke="rgb(55,68,97)" stroke-width="1" opacity="1" d="M 135.5 91 L 137 97 L 139 97.5 L 137 98 L 137 119.5 L 138.5 121 Q 145.5 122.5 147 118.5 L 147.5 114 L 151.5 119 L 152.5 110 L 153 119.5 L 154 120.5 L 153 122.5 L 166 139 Q 168.7 137.9 168 140.5 Q 193.7 168.3 229.5 186 L 248.5 194 L 272.5 201 L 296.5 204 L 297.5 205 L 314.5 206 L 316 205.5 L 313.5 208 L 236.5 208 Q 183.9 186.6 150 146.5 L 132 121.5 L 136 120 L 135.5 91 Z " /><path fill="rgb(55,68,97)" stroke="rgb(55,68,97)" stroke-width="1" opacity="1" d="M 160.5 107 L 161 119.5 L 159 120.5 L 160 119.5 L 160.5 107 Z " /><path fill="rgb(55,68,97)" stroke="rgb(55,68,97)" stroke-width="1" opacity="1" d="M 146.5 108 L 147 112.5 L 146 112.5 L 146.5 108 Z " /><path fill="rgb(55,68,97)" stroke="rgb(55,68,97)" stroke-width="1" opacity="1" d="M 186.5 112 Q 189.3 111.4 188 117.5 L 187 117.5 L 186.5 112 Z " /><path fill="rgb(55,68,97)" stroke="rgb(55,68,97)" stroke-width="1" opacity="1" d="M 164.5 120 L 171 120.5 L 164.5 121 L 164.5 120 Z " /><path fill="rgb(55,68,97)" stroke="rgb(55,68,97)" stroke-width="1" opacity="1" d="M 316.5 182 L 317 192.5 L 316 192.5 L 316.5 182 Z " /><path fill="rgb(65,76,104)" stroke="rgb(65,76,104)" stroke-width="1" opacity="1" d="M 180.5 3 L 214 3.5 L 185 4 Q 187 10 186 20.5 L 192 45.5 Q 201 70.5 217 88.5 Q 211.2 87.7 209.5 91 L 207.5 91 Q 204.9 90.3 206 93 L 203.5 93 Q 199.8 95 201.5 97 L 200 97.5 L 200.5 99 Q 198.3 98.3 199 100.5 L 198 101.5 L 198 109.5 L 200 109.5 L 199 111.5 L 202 115.5 L 197 111.5 L 197 91.5 L 194.5 89 Q 188.5 87.5 187 90.5 L 185 95.5 L 185.5 97 Q 169.5 75.5 161 46.5 L 157 27.5 L 156 7.5 L 155 4 L 179.5 4 L 180.5 3 Z " /><path fill="rgb(65,76,104)" stroke="rgb(65,76,104)" stroke-width="1" opacity="1" d="M 240.5 89 L 247 89.5 L 240.5 90 L 240.5 89 Z " /><path fill="rgb(65,76,104)" stroke="rgb(65,76,104)" stroke-width="1" opacity="1" d="M 163.5 91 L 164 119.5 L 163 119.5 L 163.5 91 Z " /><path fill="rgb(65,76,104)" stroke="rgb(65,76,104)" stroke-width="1" opacity="1" d="M 223.5 91 L 224.5 93 L 223.5 91 Z " /><path fill="rgb(65,76,104)" stroke="rgb(65,76,104)" stroke-width="1" opacity="1" d="M 236.5 91 L 233.5 95 L 236.5 91 Z " /><path fill="rgb(65,76,104)" stroke="rgb(65,76,104)" stroke-width="1" opacity="1" d="M 250.5 91 L 255 96.5 L 250.5 100 L 251.5 98 L 254 96.5 L 250.5 91 Z " /><path fill="rgb(65,76,104)" stroke="rgb(65,76,104)" stroke-width="1" opacity="1" d="M 227.5 95 L 228.5 97 L 227.5 95 Z " /><path fill="rgb(65,76,104)" stroke="rgb(65,76,104)" stroke-width="1" opacity="1" d="M 232.5 97 L 233 100.5 L 232 100.5 L 232.5 97 Z " /><path fill="rgb(65,76,104)" stroke="rgb(65,76,104)" stroke-width="1" opacity="1" d="M 210.5 98 L 212.5 98 Q 219.4 97.1 221 101.5 Q 219.5 107 222 108.5 L 220 109.5 Q 222.3 110.8 219.5 112 L 217.5 112 Q 210.5 113.5 209 109.5 L 208 102.5 L 208.5 100 Q 211 100.7 210.5 98 Z " /><path fill="rgb(65,76,104)" stroke="rgb(65,76,104)" stroke-width="1" opacity="1" d="M 246.5 98 L 247.5 100 L 246.5 98 Z " /><path fill="rgb(65,76,104)" stroke="rgb(65,76,104)" stroke-width="1" opacity="1" d="M 244.5 100 L 248 101.5 L 245.5 102 L 244.5 100 Z " /><path fill="rgb(65,76,104)" stroke="rgb(65,76,104)" stroke-width="1" opacity="1" d="M 249.5 102 L 254 105 L 256 109.5 L 255 109.5 L 249.5 102 Z " /><path fill="rgb(65,76,104)" stroke="rgb(65,76,104)" stroke-width="1" opacity="1" d="M 231.5 103 L 234.5 105 L 236 104.5 Q 233.7 105.8 236.5 107 L 238.5 106 L 242 108.5 L 240.5 108 L 237.5 107 L 239.5 110 L 244 112.5 Q 242.3 115.8 240.5 112 Q 238.3 112.8 239 110.5 L 237 109.5 Q 237.8 112.1 234.5 111 L 232 114.5 L 235.5 119 Q 238.3 122.7 245.5 122 L 249.5 120 L 253 117.5 Q 252.3 115.3 254.5 116 L 253.5 119 L 280.5 130 L 299.5 134 L 311.5 135 L 313.5 135 L 316 134.5 L 316 105.5 L 317 105.5 L 317 139.5 L 316 140.5 L 316 164 L 299.5 164 L 298.5 163 L 286.5 162 L 253.5 152 L 223.5 135 L 204 118.5 L 206.5 120 L 210.5 121 L 212 120.5 L 211.5 122 Q 221.3 122.8 225 117.5 L 226.5 115 L 229 113.5 L 230 111.5 Q 227.5 110 231 108.5 L 231.5 103 Z " /><path fill="rgb(65,76,104)" stroke="rgb(65,76,104)" stroke-width="1" opacity="1" d="M 243.5 109 Q 246.8 107.9 246 110.5 L 244.5 110 L 243.5 109 Z " /><path fill="rgb(65,76,104)" stroke="rgb(65,76,104)" stroke-width="1" opacity="1" d="M 171.5 110 L 172 119.5 L 171 119.5 L 171.5 110 Z " /><path fill="rgb(72,83,110)" stroke="rgb(72,83,110)" stroke-width="1" opacity="1" d="M 214.5 3 L 291 3.5 L 268.5 4 L 267 5.5 Q 270 30 285.5 42 Q 296.1 51.4 314.5 53 L 316 51.5 L 316.5 29 L 317 104.5 L 316 105.5 L 316 135 L 312.5 134 L 307.5 135 L 280.5 130 L 252.5 118 L 251 118.5 L 255 116.5 L 254 114.5 L 256 114.5 L 255.5 108 L 254 108.5 L 254 106.5 Q 254.8 104.3 252.5 105 Q 250.8 101.9 249 103.5 L 249.5 102 L 247.5 103 L 247.5 101 Q 242.8 100.8 241 97.5 L 242.5 98 L 246.5 99 L 248.5 99 L 250.5 100 L 255 96.5 L 250.5 91 Q 247 87.8 240 89 L 239.5 91 L 238 90.5 L 237.5 92 Q 235.8 89.3 234 93.5 L 234.5 95 L 233 94.5 L 234 96.5 L 232 97 L 232.5 101 L 234 100.5 L 233 102.5 Q 236 107.5 242.5 109 L 244 108.5 L 243.5 110 L 246 111.5 L 245.5 114 L 231 102.5 L 230.5 100 L 229 100.5 L 230 98.5 L 228.5 96 L 227 96.5 L 228 95.5 L 224.5 92 L 223 92.5 L 223.5 91 L 220.5 90 L 219 90.5 L 219.5 89 Q 214.5 89.5 214 85.5 Q 200.3 68.2 192 45.5 L 186 20.5 Q 187 10 185 4 L 213.5 4 L 214.5 3 Z " /><path fill="rgb(72,83,110)" stroke="rgb(72,83,110)" stroke-width="1" opacity="1" d="M 150.5 97 L 153 97.5 L 150.5 98 L 150.5 97 Z " /><path fill="rgb(72,83,110)" stroke="rgb(72,83,110)" stroke-width="1" opacity="1" d="M 117.5 103 L 118 106.5 L 117 106.5 L 117.5 103 Z " /><path fill="rgb(72,83,110)" stroke="rgb(72,83,110)" stroke-width="1" opacity="1" d="M 145.5 107 L 146 118.5 L 145 118.5 L 145.5 107 Z " /><path fill="rgb(72,83,110)" stroke="rgb(72,83,110)" stroke-width="1" opacity="1" d="M 9.5 209 L 130 209.5 L 9.5 210 L 9.5 209 Z " /><path fill="rgb(254,254,254)" stroke="rgb(254,254,254)" stroke-width="1" opacity="1" d="M 5.5 3 L 4.5 5 L 5.5 3 Z " /><path fill="rgb(254,254,254)" stroke="rgb(254,254,254)" stroke-width="1" opacity="1" d="M 9.5 210 L 312 210.5 L 9.5 211 L 9.5 210 Z " /><path fill="rgb(255,255,255)" stroke="rgb(255,255,255)" stroke-width="1" opacity="1" d="M 0 0 L 320 0 L 320 213 L 0 213 L 0 0 Z M 8 2 L 6 3 L 3 7 L 3 207 L 10 211 L 312 211 L 315 210 L 318 206 L 318 7 L 314 2 L 8 2 Z " /><path fill="rgb(44,57,88)" stroke="rgb(44,57,88)" stroke-width="1" opacity="1" d="M 38.5 3 L 73 3.5 L 39 4 L 39 27.5 L 40 28.5 L 40 38.5 L 42 44.5 L 43 56.5 L 51 87.5 L 60 111.5 Q 82.3 163.3 119.5 200 L 128.5 208 L 176 208.5 L 128.5 209 Q 127.3 206.8 122.5 208 L 120.5 208 L 79.5 208 L 77 205.5 Q 41.7 164.3 21 108.5 L 12 78.5 L 5 42.5 L 5 7.5 L 6 5 L 9.5 4 L 37.5 4 L 38.5 3 Z " /><path fill="rgb(44,57,88)" stroke="rgb(44,57,88)" stroke-width="1" opacity="1" d="M 89.5 78 L 93 78.5 L 89.5 79 L 89.5 78 Z " /><path fill="rgb(44,57,88)" stroke="rgb(44,57,88)" stroke-width="1" opacity="1" d="M 77.5 82 L 75.5 85 L 77.5 82 Z " /><path fill="rgb(44,57,88)" stroke="rgb(44,57,88)" stroke-width="1" opacity="1" d="M 73.5 85 L 72.5 87 L 73.5 85 Z " /><path fill="rgb(44,57,88)" stroke="rgb(44,57,88)" stroke-width="1" opacity="1" d="M 70.5 89 L 69 91.5 L 66.5 96 L 67 94.5 L 70.5 89 Z " /><path fill="rgb(44,57,88)" stroke="rgb(44,57,88)" stroke-width="1" opacity="1" d="M 66.5 97 L 66 98.5 L 65.5 100 L 65 98.5 L 66.5 97 Z " /><path fill="rgb(44,57,88)" stroke="rgb(44,57,88)" stroke-width="1" opacity="1" d="M 89.5 98 L 93 98.5 L 89.5 99 L 89.5 98 Z " /><path fill="rgb(44,57,88)" stroke="rgb(44,57,88)" stroke-width="1" opacity="1" d="M 83.5 99 L 86 99.5 L 83.5 100 L 83.5 99 Z " /><path fill="rgb(44,57,88)" stroke="rgb(44,57,88)" stroke-width="1" opacity="1" d="M 95.5 100 L 98 100.5 L 95.5 101 L 95.5 100 Z " /><path fill="rgb(44,57,88)" stroke="rgb(44,57,88)" stroke-width="1" opacity="1" d="M 87.5 101 L 92 101.5 L 87.5 102 L 87.5 101 Z " /><path fill="rgb(44,57,88)" stroke="rgb(44,57,88)" stroke-width="1" opacity="1" d="M 75.5 102 L 74.5 104 L 73 103.5 L 75.5 102 Z " /><path fill="rgb(44,57,88)" stroke="rgb(44,57,88)" stroke-width="1" opacity="1" d="M 82.5 102 L 85 102.5 L 82.5 103 L 82.5 102 Z " /><path fill="rgb(44,57,88)" stroke="rgb(44,57,88)" stroke-width="1" opacity="1" d="M 65.5 105 L 66 107.5 L 65 107.5 L 65.5 105 Z " /><path fill="rgb(44,57,88)" stroke="rgb(44,57,88)" stroke-width="1" opacity="1" d="M 75.5 105 L 71.5 110 L 75.5 105 Z " /><path fill="rgb(44,57,88)" stroke="rgb(44,57,88)" stroke-width="1" opacity="1" d="M 70.5 106 L 71 107.5 L 70 110.5 L 70.5 112 L 69 111.5 L 67.5 114 L 68 112.5 L 70.5 106 Z " /><path fill="rgb(44,57,88)" stroke="rgb(44,57,88)" stroke-width="1" opacity="1" d="M 95.5 107 L 94.5 109 L 90 110 Q 88.7 106.3 94.5 108 L 95.5 107 Z " /><path fill="rgb(44,57,88)" stroke="rgb(44,57,88)" stroke-width="1" opacity="1" d="M 84.5 112 L 82.5 115 L 84.5 112 Z " /><path fill="rgb(44,57,88)" stroke="rgb(44,57,88)" stroke-width="1" opacity="1" d="M 70.5 114 L 71 116.5 L 70 116.5 L 70.5 114 Z " /><path fill="rgb(44,57,88)" stroke="rgb(44,57,88)" stroke-width="1" opacity="1" d="M 81.5 116 L 81 117.5 L 80.5 119 L 80 117.5 L 81.5 116 Z " /><path fill="rgb(44,57,88)" stroke="rgb(44,57,88)" stroke-width="1" opacity="1" d="M 76.5 121 L 79 125.5 L 77 124.5 L 76.5 121 Z " /><path fill="rgb(44,57,88)" stroke="rgb(44,57,88)" stroke-width="1" opacity="1" d="M 111.5 122 L 108.5 126 L 111.5 122 Z " /><path fill="rgb(44,57,88)" stroke="rgb(44,57,88)" stroke-width="1" opacity="1" d="M 73.5 123 L 75.5 126 L 78 127.5 L 76.5 127 L 73 124.5 L 73.5 123 Z " /><path fill="rgb(44,57,88)" stroke="rgb(44,57,88)" stroke-width="1" opacity="1" d="M 81.5 127 Q 83.8 130.8 89 131.5 L 86.5 132 L 81.5 127 Z " /><path fill="rgb(52,64,94)" stroke="rgb(52,64,94)" stroke-width="1" opacity="1" d="M 97.5 3 L 115 3.5 L 97.5 4 L 97.5 3 Z " /><path fill="rgb(52,64,94)" stroke="rgb(52,64,94)" stroke-width="1" opacity="1" d="M 68 4 L 84.5 4 L 85 7.5 L 86 8.5 L 86 26.5 L 88 33.5 L 89 46.5 L 98 79 Q 94.6 76.9 87 78 L 86.5 80 L 83.5 79 L 79 80 L 74 61.5 L 69 34.5 L 69 32.5 Q 70.3 27.8 68 26.5 L 68 4 Z " /><path fill="rgb(52,64,94)" stroke="rgb(52,64,94)" stroke-width="1" opacity="1" d="M 100.5 80 L 101.5 82 L 100.5 80 Z " /><path fill="rgb(52,64,94)" stroke="rgb(52,64,94)" stroke-width="1" opacity="1" d="M 106.5 83 L 105.5 85 L 106.5 83 Z " /><path fill="rgb(52,64,94)" stroke="rgb(52,64,94)" stroke-width="1" opacity="1" d="M 108.5 84 L 110.5 87 L 108.5 84 Z " /><path fill="rgb(52,64,94)" stroke="rgb(52,64,94)" stroke-width="1" opacity="1" d="M 101.5 87 L 102 89.5 L 98.5 91 L 99.5 89 Q 102 89.7 101.5 87 Z " /><path fill="rgb(52,64,94)" stroke="rgb(52,64,94)" stroke-width="1" opacity="1" d="M 128.5 89 L 133 89.5 L 128.5 90 L 128.5 89 Z " /><path fill="rgb(52,64,94)" stroke="rgb(52,64,94)" stroke-width="1" opacity="1" d="M 112.5 90 L 115 91.5 L 114.5 93 L 114 91 L 111.5 92 L 112.5 90 Z " /><path fill="rgb(52,64,94)" stroke="rgb(52,64,94)" stroke-width="1" opacity="1" d="M 109.5 92 L 108.5 94 L 109.5 92 Z " /><path fill="rgb(52,64,94)" stroke="rgb(52,64,94)" stroke-width="1" opacity="1" d="M 105.5 95 L 106.5 97 L 105 96.5 Q 105.8 99.1 102.5 98 Q 99 101 92 100.5 L 92.5 102 L 87 100.5 L 88.5 99 L 99.5 98 L 105.5 95 Z " /><path fill="rgb(52,64,94)" stroke="rgb(52,64,94)" stroke-width="1" opacity="1" d="M 118.5 103 L 119 106.5 L 118 106.5 L 118.5 103 Z " /><path fill="rgb(52,64,94)" stroke="rgb(52,64,94)" stroke-width="1" opacity="1" d="M 126.5 113 L 127 120 L 134 120.5 L 127.5 121 Q 124.1 119.1 126.5 113 Z " /><path fill="rgb(52,64,94)" stroke="rgb(52,64,94)" stroke-width="1" opacity="1" d="M 115.5 117 Q 133.9 150.6 161.5 175 Q 182.1 193.9 208 207.5 L 174.5 208 Q 149.6 190.9 130 168.5 L 114 148.5 L 104 133.5 L 103 129 Q 109.8 127.9 113 121.5 L 115.5 117 Z " /><path fill="rgb(52,64,94)" stroke="rgb(52,64,94)" stroke-width="1" opacity="1" d="M 139.5 120 L 145 120.5 L 139.5 121 L 139.5 120 Z " /><path fill="rgb(52,64,94)" stroke="rgb(52,64,94)" stroke-width="1" opacity="1" d="M 224.5 208 L 313 208.5 L 224.5 209 L 224.5 208 Z " /><path fill="rgb(61,72,100)" stroke="rgb(61,72,100)" stroke-width="1" opacity="1" d="M 156.5 3 L 168 3.5 L 156.5 4 L 156.5 3 Z " /><path fill="rgb(61,72,100)" stroke="rgb(61,72,100)" stroke-width="1" opacity="1" d="M 127 4 L 139 4.5 L 138 5.5 L 138 15.5 L 140 23.5 L 141 37.5 L 143 41.5 L 146 56.5 L 151 70.5 L 161 91 L 163 91.5 L 163 103.5 L 162 104.5 L 161.5 113 L 161 103.5 L 157.5 98 L 150 96 L 140 74.5 L 133 54.5 L 127 23.5 L 127 4 Z " /><path fill="rgb(61,72,100)" stroke="rgb(61,72,100)" stroke-width="1" opacity="1" d="M 170.5 89 L 172.5 92 L 170.5 89 Z " /><path fill="rgb(61,72,100)" stroke="rgb(61,72,100)" stroke-width="1" opacity="1" d="M 189.5 89 L 195 89.5 L 189.5 90 L 189.5 89 Z " /><path fill="rgb(61,72,100)" stroke="rgb(61,72,100)" stroke-width="1" opacity="1" d="M 212.5 89 L 217 89.5 L 212.5 90 L 212.5 89 Z " /><path fill="rgb(61,72,100)" stroke="rgb(61,72,100)" stroke-width="1" opacity="1" d="M 196.5 91 L 197 100.5 L 196 100.5 L 196.5 91 Z " /><path fill="rgb(61,72,100)" stroke="rgb(61,72,100)" stroke-width="1" opacity="1" d="M 218.5 98 L 220.5 101 L 218.5 98 Z " /><path fill="rgb(61,72,100)" stroke="rgb(61,72,100)" stroke-width="1" opacity="1" d="M 134.5 104 L 135 118.5 L 134 118.5 L 134.5 104 Z " /><path fill="rgb(61,72,100)" stroke="rgb(61,72,100)" stroke-width="1" opacity="1" d="M 246.5 110 L 247 112.5 L 246 112.5 L 246.5 110 Z " /><path fill="rgb(61,72,100)" stroke="rgb(61,72,100)" stroke-width="1" opacity="1" d="M 172.5 114 L 176.5 121 L 182.5 121 Q 209.2 151.8 249.5 169 L 283.5 179 L 288.5 179 L 295.5 181 L 309.5 181 L 316 182 L 316 192.5 L 314.5 194 L 298.5 193 L 297.5 192 L 295.5 193 L 265.5 187 L 245.5 180 L 222.5 169 Q 195.4 153.1 175 130.5 L 168 121.5 L 173 120 L 172.5 114 Z " /><path fill="rgb(61,72,100)" stroke="rgb(61,72,100)" stroke-width="1" opacity="1" d="M 213.5 121 L 216 121.5 L 213.5 122 L 213.5 121 Z " /><path fill="rgb(61,72,100)" stroke="rgb(61,72,100)" stroke-width="1" opacity="1" d="M 316.5 152 L 317 163.5 L 316 163.5 L 316.5 152 Z " /><path fill="rgb(54,66,96)" stroke="rgb(54,66,96)" stroke-width="1" opacity="1" d="M 115.5 3 L 127 3.5 L 115.5 4 L 115.5 3 Z " /><path fill="rgb(54,66,96)" stroke="rgb(54,66,96)" stroke-width="1" opacity="1" d="M 85 4 L 97 4 L 97 17.5 L 98 18.5 L 98 29.5 L 100 35.5 L 100 41.5 L 106 66.5 L 114 88.5 L 125.5 110 L 126.5 91 L 127 112.5 Q 124.5 114 126 119.5 L 133 122.5 Q 149.5 150 173.5 170 Q 200 193.5 236 207.5 L 208.5 208 Q 172.4 188.6 146 159.5 Q 127.6 140.4 115 115.5 L 117 115.5 L 118 109.5 Q 115.5 108 119 106.5 Q 119.8 102.3 117 101.5 L 118 98.5 L 113.5 90 L 111 91.5 L 107.5 96 L 105.5 97 L 107.5 94 L 110 92.5 L 111 86.5 L 106.5 83 L 104 88.5 L 104.5 90 L 102 89.5 L 103 83.5 L 101.5 81 L 100 81.5 L 100.5 80 L 98 78.5 L 89 46.5 L 88 33.5 L 86 26.5 L 86 8.5 L 85 4 Z " /><path fill="rgb(54,66,96)" stroke="rgb(54,66,96)" stroke-width="1" opacity="1" d="M 139.5 97 L 144 97.5 L 139.5 98 L 139.5 97 Z " /><path fill="rgb(54,66,96)" stroke="rgb(54,66,96)" stroke-width="1" opacity="1" d="M 158.5 100 L 159.5 102 L 158.5 100 Z " /><path fill="rgb(54,66,96)" stroke="rgb(54,66,96)" stroke-width="1" opacity="1" d="M 135.5 106 L 136 119.5 L 135 119.5 L 135.5 106 Z " /><path fill="rgb(54,66,96)" stroke="rgb(54,66,96)" stroke-width="1" opacity="1" d="M 94.5 107 L 95.5 109 L 94.5 107 Z " /><path fill="rgb(54,66,96)" stroke="rgb(54,66,96)" stroke-width="1" opacity="1" d="M 146.5 113 L 147 118.5 L 146 118.5 L 146.5 113 Z " /><path fill="rgb(54,66,96)" stroke="rgb(54,66,96)" stroke-width="1" opacity="1" d="M 154.5 120 L 159 120.5 L 154.5 121 L 154.5 120 Z " /><path fill="rgb(54,66,96)" stroke="rgb(54,66,96)" stroke-width="1" opacity="1" d="M 316.5 193 L 317 199.5 L 316 199.5 L 316.5 193 Z " /><path fill="rgb(62,74,102)" stroke="rgb(62,74,102)" stroke-width="1" opacity="1" d="M 168.5 3 L 180 3.5 L 168.5 4 L 168.5 3 Z " /><path fill="rgb(62,74,102)" stroke="rgb(62,74,102)" stroke-width="1" opacity="1" d="M 139.5 4 L 154.5 4 L 155 6.5 L 156 7.5 L 157 27.5 L 161 46.5 Q 169.4 75.1 185 96.5 L 180 106.5 L 180.5 108 L 179 105 L 177 104.5 L 177 102.5 L 173 91.5 L 170.5 89 L 164.5 89 Q 165.3 92 161 91 L 151 70.5 L 143 45.5 L 140 31.5 L 140 23.5 L 138 15.5 L 138 5.5 L 139.5 4 Z " /><path fill="rgb(62,74,102)" stroke="rgb(62,74,102)" stroke-width="1" opacity="1" d="M 188.5 89 L 187.5 91 L 188.5 89 Z " /><path fill="rgb(62,74,102)" stroke="rgb(62,74,102)" stroke-width="1" opacity="1" d="M 134.5 91 L 135 103.5 L 134 103.5 L 134.5 91 Z " /><path fill="rgb(62,74,102)" stroke="rgb(62,74,102)" stroke-width="1" opacity="1" d="M 203.5 93 L 201.5 96 L 203.5 93 Z " /><path fill="rgb(62,74,102)" stroke="rgb(62,74,102)" stroke-width="1" opacity="1" d="M 225.5 93 L 226.5 95 L 225.5 93 Z " /><path fill="rgb(62,74,102)" stroke="rgb(62,74,102)" stroke-width="1" opacity="1" d="M 207.5 107 L 208.5 109 L 207.5 107 Z " /><path fill="rgb(62,74,102)" stroke="rgb(62,74,102)" stroke-width="1" opacity="1" d="M 255.5 110 L 256 112.5 L 255 112.5 L 255.5 110 Z " /><path fill="rgb(62,74,102)" stroke="rgb(62,74,102)" stroke-width="1" opacity="1" d="M 197.5 112 L 204 117.5 L 205.5 120 L 207 119.5 Q 204.8 120.8 207.5 122 Q 228.9 142.1 258.5 154 L 286.5 162 L 298.5 163 L 299.5 164 L 316 164 L 316 181.5 Q 315.9 182.6 310.5 182 L 309.5 181 L 295.5 181 L 278.5 178 L 260.5 173 L 240.5 165 Q 206.6 148.4 183 121.5 L 186.5 114 Q 185.6 119.4 188.5 121 Q 194.6 121.8 197 120 L 197.5 112 Z " /><path fill="rgb(62,74,102)" stroke="rgb(62,74,102)" stroke-width="1" opacity="1" d="M 233.5 116 L 235.5 119 L 233.5 116 Z " /><path fill="rgb(62,74,102)" stroke="rgb(62,74,102)" stroke-width="1" opacity="1" d="M 237.5 119 L 238.5 121 L 237.5 119 Z " /><path fill="rgb(62,74,102)" stroke="rgb(62,74,102)" stroke-width="1" opacity="1" d="M 316.5 140 L 317 151.5 L 316 151.5 L 316.5 140 Z " /><path fill="rgb(38,51,83)" stroke="rgb(38,51,83)" stroke-width="1" opacity="1" d="M 8.5 3 L 38 3.5 L 9.5 4 L 6 5 L 5 7.5 L 5 42.5 L 15 89.5 L 21 105.5 L 21 108.5 L 34 139.5 Q 52.6 177.9 79.5 208 L 121 208.5 L 6.5 209 L 4 205.5 L 4 7.5 L 6.5 4 L 8.5 3 Z " /><path fill="rgb(38,51,83)" stroke="rgb(38,51,83)" stroke-width="1" opacity="1" d="M 72.5 104 L 71.5 106 L 72.5 104 Z " /><path fill="rgb(38,51,83)" stroke="rgb(38,51,83)" stroke-width="1" opacity="1" d="M 76.5 117 L 77 120.5 L 76 120.5 L 76.5 117 Z " /><path fill="rgb(38,51,83)" stroke="rgb(38,51,83)" stroke-width="1" opacity="1" d="M 89.5 131 L 94 131.5 L 89.5 132 L 89.5 131 Z " /><path fill="rgb(38,51,83)" stroke="rgb(38,51,83)" stroke-width="1" opacity="1" d="M 122.5 208 L 128 208.5 L 122.5 209 L 122.5 208 Z " /></svg>